<svg xmlns="http://www.w3.org/2000/svg" x="0px" y="0px"
width="22" height="22"
viewBox="0 0 172 172"
style=" fill:#000000;"><g fill="none" fill-rule="nonzero" stroke="none" stroke-width="1" stroke-linecap="butt" stroke-linejoin="miter" stroke-miterlimit="10" stroke-dasharray="" stroke-dashoffset="0" font-family="none" font-weight="none" font-size="none" text-anchor="none" style="mix-blend-mode: normal"><path d="M0,172v-172h172v172z" fill="none"></path><g fill="#3498db"><path d="M71.08424,14.44531c-3.53111,-0.02879 -6.92644,1.35892 -9.42654,3.85273c-2.5001,2.49381 -3.89635,5.88563 -3.87646,9.4168v4.19922h-17.19974c-6.44548,0.00015 -11.89081,4.78131 -12.72467,11.17263c-0.83385,6.39132 3.20252,12.40952 9.43222,14.06336v82.76792c0,4.89192 1.79354,9.48547 4.92818,12.78203c3.11828,3.30545 7.45902,5.18255 12.0032,5.19063h63.55911c4.54439,-0.00798 8.88538,-1.88508 12.00386,-5.19063c3.13396,-3.29655 4.92752,-7.89011 4.92752,-12.78203v-82.76792c6.22969,-1.65384 10.26607,-7.67204 9.43222,-14.06336c-0.83385,-6.39132 -6.27918,-11.17248 -12.72467,-11.17263h-17.19974v-4.19922c0.0199,-3.53117 -1.37636,-6.92299 -3.87646,-9.4168c-2.5001,-2.49381 -5.89543,-3.88152 -9.42654,-3.85273zM71.07834,21.16406c0.00197,0 0.00394,0 0.00591,0h29.83151c1.74972,-0.0309 3.43734,0.64824 4.67792,1.88251c1.24058,1.23427 1.92831,2.91841 1.90632,4.66827v4.19922h-43v-4.19922c-0.02185,-1.74878 0.6651,-3.43194 1.90437,-4.66601c1.23927,-1.23407 2.92529,-1.91396 4.67397,-1.88477zM40.58151,38.63281h90.83698c3.3396,0 6.04688,2.70728 6.04688,6.04688c0,3.3396 -2.70728,6.04688 -6.04687,6.04688h-90.83698c-3.3396,0 -6.04687,-2.70728 -6.04687,-6.04687c0,-3.3396 2.70728,-6.04687 6.04688,-6.04687zM44.00781,57.44531h83.98438v82.47266c0,6.31999 -4.4681,11.25391 -10.21263,11.25391h-63.55911c-5.74453,0 -10.21263,-4.93391 -10.21263,-11.25391zM66.17969,66.41458c-1.85533,0 -3.35937,1.50404 -3.35937,3.35938v63.49219c0,1.85533 1.50404,3.35938 3.35938,3.35938c1.85533,0 3.35938,-1.50404 3.35938,-3.35937v-63.49219c0,-1.85533 -1.50404,-3.35937 -3.35937,-3.35937zM86,66.41458c-1.85533,0 -3.35937,1.50404 -3.35937,3.35938v63.49219c0,1.85533 1.50404,3.35938 3.35938,3.35938c1.85533,0 3.35938,-1.50404 3.35938,-3.35937v-63.49219c0,-1.85533 -1.50404,-3.35937 -3.35937,-3.35937zM105.82031,66.41458c-1.85533,0 -3.35937,1.50404 -3.35937,3.35938v63.49219c0,1.85533 1.50404,3.35938 3.35938,3.35938c1.85533,0 3.35938,-1.50404 3.35938,-3.35937v-63.49219c0,-1.85533 -1.50404,-3.35937 -3.35937,-3.35937z"></path></g></g></svg>